<svg id="Layer_1" data-name="Layer 1" xmlns="http://www.w3.org/2000/svg" viewBox="0 0 113.39 28.35"><defs><style>.cls-1{fill:#fff;}.cls-2{fill:#804a97;}</style></defs><polygon class="cls-1" points="13.41 20.51 13.41 24.16 5 18.63 5 14.99 13.41 9.49 13.41 13.13 7.4 16.82 13.41 20.51"/><polygon class="cls-1" points="16.65 13.14 16.65 9.49 25.06 15.02 25.06 18.66 16.65 24.16 16.65 20.52 22.66 16.82 16.65 13.14"/><polygon class="cls-2" points="12.95 16.35 17.09 16.35 15.02 18.25 12.95 16.35"/><path class="cls-2" d="M1.55,13.89V10.37L3.3,9.18,2.54,3.59,8.83,5.4,13,2.66a3.79,3.79,0,0,1,4.28,0l3.95,2.68,6.24-1.75-.65,5.48,1.69,1.13v3.69L15,5.17Z"/><path class="cls-1" d="M34.45,21.3a4,4,0,0,1-1.55-1.66,5.39,5.39,0,0,1-.56-2.5V13.65a5.39,5.39,0,0,1,.56-2.5,4,4,0,0,1,1.55-1.67,4.53,4.53,0,0,1,2.33-.59,4.38,4.38,0,0,1,2,.47,4.26,4.26,0,0,1,1.54,1.33,4.88,4.88,0,0,1,.83,2H39.33a2.83,2.83,0,0,0-.55-1.06,2.78,2.78,0,0,0-.92-.72,2.45,2.45,0,0,0-1.08-.26,2.49,2.49,0,0,0-1.37.38,2.43,2.43,0,0,0-.91,1.06,3.54,3.54,0,0,0-.33,1.58v3.49a3.6,3.6,0,0,0,.33,1.58,2.46,2.46,0,0,0,.91,1.05,2.49,2.49,0,0,0,1.37.37,2.77,2.77,0,0,0,1.09-.23,2.65,2.65,0,0,0,.91-.7,2.76,2.76,0,0,0,.55-1.11h1.83a4.75,4.75,0,0,1-.84,2,4.28,4.28,0,0,1-1.54,1.33,4.36,4.36,0,0,1-2,.47A4.53,4.53,0,0,1,34.45,21.3Z"/><path class="cls-1" d="M45,21.42a3,3,0,0,1-1.28-1.35,4.7,4.7,0,0,1-.45-2.14V16.45a4.61,4.61,0,0,1,.45-2.12A3.07,3.07,0,0,1,45,13a4.67,4.67,0,0,1,4,0,3.09,3.09,0,0,1,1.29,1.34,4.74,4.74,0,0,1,.44,2.12V18a4.79,4.79,0,0,1-.44,2.13A3.09,3.09,0,0,1,49,21.42a4.58,4.58,0,0,1-4,0Zm3.47-1.82A2.43,2.43,0,0,0,49,18v-1.5a2.4,2.4,0,0,0-.51-1.64,2.1,2.1,0,0,0-2.9,0,2.4,2.4,0,0,0-.51,1.64V18a2.43,2.43,0,0,0,.51,1.65,2.08,2.08,0,0,0,2.9,0Z"/><path class="cls-1" d="M54.48,21.48a2.77,2.77,0,0,1-1.08-1.27,5,5,0,0,1-.36-2v-2a5,5,0,0,1,.36-2,2.64,2.64,0,0,1,1-1.27,3,3,0,0,1,1.65-.43,2.74,2.74,0,0,1,1.48.42,3.09,3.09,0,0,1,1.08,1.18L58.47,16a2.13,2.13,0,0,0-.21-1,1.43,1.43,0,0,0-.61-.63,2.07,2.07,0,0,0-1-.21,1.71,1.71,0,0,0-1.37.55,2.24,2.24,0,0,0-.49,1.55v2a2.18,2.18,0,0,0,.49,1.53,1.77,1.77,0,0,0,1.37.53,2,2,0,0,0,1-.22,1.51,1.51,0,0,0,.61-.64,2.25,2.25,0,0,0,.21-1l.12,1.92a2.63,2.63,0,0,1-.89,1.13,2.51,2.51,0,0,1-1.52.45A3.16,3.16,0,0,1,54.48,21.48ZM58.47,9h1.78V21.75H58.47Z"/><path class="cls-1" d="M64.53,21.41A3.13,3.13,0,0,1,63.17,20a4.85,4.85,0,0,1-.47-2.22v-1a5.33,5.33,0,0,1,.45-2.3A3.33,3.33,0,0,1,64.46,13a4.09,4.09,0,0,1,2.07-.5,3.25,3.25,0,0,1,1.94.57,3.58,3.58,0,0,1,1.24,1.65,7.12,7.12,0,0,1,.42,2.58v.6H64V16.49h4.43a3,3,0,0,0-.57-1.73,1.62,1.62,0,0,0-1.33-.61,1.93,1.93,0,0,0-1.57.66,2.85,2.85,0,0,0-.56,1.88v1.16a2.35,2.35,0,0,0,.6,1.73,2.23,2.23,0,0,0,1.69.61A2.88,2.88,0,0,0,67.76,20a3.2,3.2,0,0,0,1-.61l1.17,1.17a5,5,0,0,1-1.51,1,4.28,4.28,0,0,1-1.69.36A4.53,4.53,0,0,1,64.53,21.41Z"/><path class="cls-1" d="M74.6,21.3a4,4,0,0,1-1.55-1.66,5.39,5.39,0,0,1-.56-2.5V13.65a5.39,5.39,0,0,1,.56-2.5A4,4,0,0,1,74.6,9.48a4.52,4.52,0,0,1,2.32-.59,4.42,4.42,0,0,1,2,.47,4.26,4.26,0,0,1,1.54,1.33,4.88,4.88,0,0,1,.83,2H79.48a2.83,2.83,0,0,0-.55-1.06,2.78,2.78,0,0,0-.92-.72,2.53,2.53,0,0,0-2.45.12,2.43,2.43,0,0,0-.91,1.06,3.54,3.54,0,0,0-.33,1.58v3.49a3.6,3.6,0,0,0,.33,1.58,2.4,2.4,0,0,0,2.27,1.42A2.7,2.7,0,0,0,78,19.91a2.59,2.59,0,0,0,.92-.7,2.76,2.76,0,0,0,.55-1.11h1.83a4.75,4.75,0,0,1-.84,2,4.28,4.28,0,0,1-1.54,1.33,4.38,4.38,0,0,1-2,.47A4.52,4.52,0,0,1,74.6,21.3Z"/><path class="cls-1" d="M85.14,21.42a3,3,0,0,1-1.28-1.35,4.7,4.7,0,0,1-.45-2.14V16.45a4.61,4.61,0,0,1,.45-2.12A3.07,3.07,0,0,1,85.14,13a4.67,4.67,0,0,1,4,0,3.09,3.09,0,0,1,1.29,1.34,4.74,4.74,0,0,1,.44,2.12V18a4.79,4.79,0,0,1-.44,2.13,3.09,3.09,0,0,1-1.29,1.34,4.58,4.58,0,0,1-4,0Zm3.47-1.82A2.43,2.43,0,0,0,89.12,18v-1.5a2.4,2.4,0,0,0-.51-1.64,2.1,2.1,0,0,0-2.9,0,2.4,2.4,0,0,0-.51,1.64V18a2.43,2.43,0,0,0,.51,1.65,2.08,2.08,0,0,0,2.9,0Z"/><path class="cls-1" d="M94.91,21.42a3,3,0,0,1-1.28-1.35,4.7,4.7,0,0,1-.44-2.14V16.45a4.61,4.61,0,0,1,.44-2.12A3.07,3.07,0,0,1,94.91,13a4.69,4.69,0,0,1,4,0,3.13,3.13,0,0,1,1.28,1.34,4.74,4.74,0,0,1,.44,2.12V18a4.79,4.79,0,0,1-.44,2.13A3.13,3.13,0,0,1,99,21.42a4.6,4.6,0,0,1-4,0Zm3.47-1.82A2.43,2.43,0,0,0,98.89,18v-1.5a2.4,2.4,0,0,0-.51-1.64,1.85,1.85,0,0,0-1.45-.58,1.87,1.87,0,0,0-1.45.58A2.4,2.4,0,0,0,95,16.45V18a2.43,2.43,0,0,0,.51,1.65,1.85,1.85,0,0,0,1.45.59A1.82,1.82,0,0,0,98.38,19.6Z"/><path class="cls-1" d="M103.22,12.67H105v9.08h-1.79Zm5.52,3.58a2.08,2.08,0,0,0-.5-1.49,1.84,1.84,0,0,0-1.4-.53,1.87,1.87,0,0,0-1.36.47A1.75,1.75,0,0,0,105,16l-.19-1.75a3.27,3.27,0,0,1,1.1-1.27,2.67,2.67,0,0,1,1.5-.45,2.83,2.83,0,0,1,2.29,1,4.17,4.17,0,0,1,.81,2.74v5.51h-1.78Z"/></svg>