<svg id="Layer_1" data-name="Layer 1" xmlns="http://www.w3.org/2000/svg" viewBox="0 0 240.94 155.91"><defs><style>.cls-1{fill:#fff;}.cls-2{fill:#8e44ad;}</style></defs><polygon class="cls-1" points="59.37 84.9 59.37 91.01 45.3 81.76 45.3 75.67 59.37 66.47 59.37 72.56 49.31 78.74 59.37 84.9"/><polygon class="cls-1" points="64.79 72.58 64.79 66.47 78.86 75.72 78.86 81.81 64.79 91.01 64.79 84.92 74.84 78.74 64.79 72.58"/><polygon class="cls-2" points="58.59 77.94 65.53 77.94 62.06 81.12 58.59 77.94"/><path class="cls-2" d="M39.53,73.83v-5.9l2.92-2-1.27-9.34,10.52,3,6.89-4.58a6.36,6.36,0,0,1,7.18,0l6.6,4.48L82.8,56.61l-1.08,9.15,2.83,1.89v6.18L62,59.25Z"/><path class="cls-1" d="M94.57,86.22A6.59,6.59,0,0,1,92,83.44,9,9,0,0,1,91,79.27V73.42A9,9,0,0,1,92,69.25a6.68,6.68,0,0,1,2.6-2.79,7.48,7.48,0,0,1,3.89-1,7.36,7.36,0,0,1,3.37.78,7.11,7.11,0,0,1,2.57,2.22,8.41,8.41,0,0,1,1.39,3.33h-3.06A4.54,4.54,0,0,0,101.8,70a4.35,4.35,0,0,0-1.53-1.21,4,4,0,0,0-1.81-.43,4,4,0,0,0-3.81,2.4,6.1,6.1,0,0,0-.54,2.64v5.85a6.09,6.09,0,0,0,.54,2.63,4.13,4.13,0,0,0,1.52,1.77,4.24,4.24,0,0,0,2.29.62,4.41,4.41,0,0,0,1.82-.39,4.32,4.32,0,0,0,1.52-1.18,4.45,4.45,0,0,0,.93-1.84h3.06a8.18,8.18,0,0,1-1.4,3.32,7.06,7.06,0,0,1-2.58,2.22,7.16,7.16,0,0,1-3.35.79A7.48,7.48,0,0,1,94.57,86.22Z"/><path class="cls-1" d="M112.2,86.43a5.11,5.11,0,0,1-2.15-2.26,8,8,0,0,1-.74-3.58V78.11a7.84,7.84,0,0,1,.74-3.54,5.06,5.06,0,0,1,2.15-2.24,7.8,7.8,0,0,1,6.76,0,5.06,5.06,0,0,1,2.15,2.24,7.84,7.84,0,0,1,.74,3.54v2.52a7.86,7.86,0,0,1-.74,3.55A5.14,5.14,0,0,1,119,86.43a7.71,7.71,0,0,1-6.76,0Zm5.8-3.05a4,4,0,0,0,.86-2.75V78.11a4,4,0,0,0-.86-2.74,3.5,3.5,0,0,0-4.84,0,4,4,0,0,0-.86,2.74v2.52a4,4,0,0,0,.86,2.75,3.48,3.48,0,0,0,4.84,0Z"/><path class="cls-1" d="M128.07,86.53a4.59,4.59,0,0,1-1.8-2.12,8.23,8.23,0,0,1-.61-3.34V77.71a8.46,8.46,0,0,1,.6-3.35A4.56,4.56,0,0,1,128,72.24a5.11,5.11,0,0,1,2.76-.72,4.55,4.55,0,0,1,2.47.7,5.18,5.18,0,0,1,1.81,2l-.31,3.1a3.65,3.65,0,0,0-.35-1.65,2.46,2.46,0,0,0-1-1.05,3.34,3.34,0,0,0-1.62-.36,2.88,2.88,0,0,0-2.29.93,3.77,3.77,0,0,0-.81,2.59v3.31a3.73,3.73,0,0,0,.81,2.56,3,3,0,0,0,2.29.9,3.24,3.24,0,0,0,1.62-.38,2.57,2.57,0,0,0,1-1.07,3.8,3.8,0,0,0,.35-1.69L135,84.6a4.4,4.4,0,0,1-1.49,1.89,4.16,4.16,0,0,1-2.54.76A5.34,5.34,0,0,1,128.07,86.53Zm6.67-20.84h3V87h-3Z"/><path class="cls-1" d="M144.89,86.42a5.4,5.4,0,0,1-2.28-2.33,8.06,8.06,0,0,1-.78-3.7V78.68a9,9,0,0,1,.75-3.85,5.41,5.41,0,0,1,2.19-2.43,6.74,6.74,0,0,1,3.46-.84,5.52,5.52,0,0,1,3.25,1,5.94,5.94,0,0,1,2.06,2.76,11.84,11.84,0,0,1,.71,4.32v1H144V78.18h7.41a5.14,5.14,0,0,0-1-2.89,2.69,2.69,0,0,0-2.22-1,3.25,3.25,0,0,0-2.63,1.11,4.77,4.77,0,0,0-.93,3.15v1.93a3.93,3.93,0,0,0,1,2.9,3.75,3.75,0,0,0,2.83,1,4.82,4.82,0,0,0,1.8-.36,5.37,5.37,0,0,0,1.59-1l2,2a8.29,8.29,0,0,1-2.54,1.67,7.15,7.15,0,0,1-2.82.6A7.73,7.73,0,0,1,144.89,86.42Z"/><path class="cls-1" d="M161.73,86.22a6.66,6.66,0,0,1-2.6-2.78,9,9,0,0,1-.92-4.17V73.42a9,9,0,0,1,.92-4.17,6.74,6.74,0,0,1,2.6-2.79,7.5,7.5,0,0,1,3.89-1,7.36,7.36,0,0,1,3.37.78,7.11,7.11,0,0,1,2.57,2.22A8.43,8.43,0,0,1,173,71.8H169.9A4.82,4.82,0,0,0,169,70a4.53,4.53,0,0,0-1.53-1.21,4.09,4.09,0,0,0-1.82-.43,4,4,0,0,0-3.81,2.4,6.1,6.1,0,0,0-.54,2.64v5.85a6.09,6.09,0,0,0,.54,2.63,4.13,4.13,0,0,0,1.52,1.77,4.24,4.24,0,0,0,2.29.62A4.29,4.29,0,0,0,169,82.72a4.71,4.71,0,0,0,.93-1.84H173a8.2,8.2,0,0,1-1.41,3.32A7.06,7.06,0,0,1,169,86.42a7.16,7.16,0,0,1-3.35.79A7.5,7.5,0,0,1,161.73,86.22Z"/><path class="cls-1" d="M179.36,86.43a5.17,5.17,0,0,1-2.15-2.26,8,8,0,0,1-.74-3.58V78.11a7.84,7.84,0,0,1,.74-3.54,5.12,5.12,0,0,1,2.15-2.24,7.83,7.83,0,0,1,6.77,0,5.1,5.1,0,0,1,2.14,2.24,7.71,7.71,0,0,1,.74,3.54v2.52a7.73,7.73,0,0,1-.74,3.55,5.17,5.17,0,0,1-2.14,2.25,7.74,7.74,0,0,1-6.77,0Zm5.81-3.05a4,4,0,0,0,.85-2.75V78.11a4,4,0,0,0-.85-2.74,3.52,3.52,0,0,0-4.85,0,4,4,0,0,0-.86,2.74v2.52a4,4,0,0,0,.86,2.75,3.49,3.49,0,0,0,4.85,0Z"/><path class="cls-1" d="M195.71,86.43a5.11,5.11,0,0,1-2.15-2.26,8,8,0,0,1-.74-3.58V78.11a7.84,7.84,0,0,1,.74-3.54,5.06,5.06,0,0,1,2.15-2.24,7.8,7.8,0,0,1,6.76,0,5.06,5.06,0,0,1,2.15,2.24,7.84,7.84,0,0,1,.74,3.54v2.52a7.86,7.86,0,0,1-.74,3.55,5.14,5.14,0,0,1-2.15,2.25,7.71,7.71,0,0,1-6.76,0Zm5.8-3.05a4,4,0,0,0,.86-2.75V78.11a4,4,0,0,0-.86-2.74,3.5,3.5,0,0,0-4.84,0,4,4,0,0,0-.86,2.74v2.52a4,4,0,0,0,.86,2.75,3.48,3.48,0,0,0,4.84,0Z"/><path class="cls-1" d="M209.61,71.78h3V87h-3Zm9.23,6a3.47,3.47,0,0,0-.84-2.49,3.61,3.61,0,0,0-4.6-.1,2.88,2.88,0,0,0-.8,2.18l-.31-2.93a5.4,5.4,0,0,1,1.84-2.12,4.43,4.43,0,0,1,2.51-.75,4.71,4.71,0,0,1,3.83,1.62,7,7,0,0,1,1.36,4.58V87h-3Z"/></svg>