<svg xmlns="http://www.w3.org/2000/svg" id="Layer_1" data-name="Layer 1" viewBox="98 59.42 45 37.07"><defs><style>.cls-1{fill:#fff;}.cls-2{fill:#804a97;}</style></defs><polygon class="cls-1" points="117.8 90.38 117.8 96.49 103.73 87.24 103.73 81.15 117.8 71.95 117.8 78.04 107.75 84.22 117.8 90.38"/><polygon class="cls-1" points="123.22 78.06 123.22 71.95 137.29 81.2 137.29 87.29 123.22 96.49 123.22 90.4 133.28 84.22 123.22 78.06"/><polygon class="cls-2" points="117.03 83.42 123.97 83.42 120.5 86.59 117.03 83.42"/><path class="cls-2" d="M98,79.31v-5.9l2.93-2-1.28-9.34,10.53,3L117,60.53a6.34,6.34,0,0,1,7.17,0L130.81,65l10.43-2.92-1.09,9.15L143,73.13v6.18L120.47,64.73Z"/></svg>